<?xml version="1.0" encoding="UTF-8" standalone="no"?>
<!-- Created with Inkscape (http://www.inkscape.org/) -->

<svg
   width="800"
   height="480"
   viewBox="0 0 750 450.00001"
   id="svg2"
   version="1.1"
   inkscape:version="1.3.1 (9b9bdc1480, 2023-11-25, custom)"
   sodipodi:docname="DABon symbol.svg"
   inkscape:export-filename="/home/valerio/Desktop/DABon symbol"
   inkscape:export-xdpi="150.33461"
   inkscape:export-ydpi="150.33461"
   xmlns:inkscape="http://www.inkscape.org/namespaces/inkscape"
   xmlns:sodipodi="http://sodipodi.sourceforge.net/DTD/sodipodi-0.dtd"
   xmlns="http://www.w3.org/2000/svg"
   xmlns:svg="http://www.w3.org/2000/svg"
   xmlns:rdf="http://www.w3.org/1999/02/22-rdf-syntax-ns#"
   xmlns:cc="http://creativecommons.org/ns#"
   xmlns:dc="http://purl.org/dc/elements/1.1/">
  <defs
     id="defs4" />
  <sodipodi:namedview
     id="base"
     pagecolor="#ffffff"
     bordercolor="#666666"
     borderopacity="1.0"
     inkscape:pageopacity="0.0"
     inkscape:pageshadow="2"
     inkscape:zoom="0.9899495"
     inkscape:cx="275.77164"
     inkscape:cy="335.87572"
     inkscape:document-units="px"
     inkscape:current-layer="layer1"
     showgrid="false"
     inkscape:window-width="1920"
     inkscape:window-height="1023"
     inkscape:window-x="0"
     inkscape:window-y="33"
     inkscape:window-maximized="1"
     inkscape:showpageshadow="0"
     inkscape:pagecheckerboard="1"
     inkscape:deskcolor="#d1d1d1" />
  <metadata
     id="metadata7">
    <rdf:RDF>
      <cc:Work
         rdf:about="">
        <dc:format>image/svg+xml</dc:format>
        <dc:type
           rdf:resource="http://purl.org/dc/dcmitype/StillImage" />
      </cc:Work>
    </rdf:RDF>
  </metadata>
  <g
     inkscape:label="Layer 1"
     inkscape:groupmode="layer"
     id="layer1">
    <path
       style="fill:none;fill-rule:evenodd;stroke:#000000;stroke-width:7.34537;stroke-linecap:butt;stroke-linejoin:miter;stroke-miterlimit:4;stroke-dasharray:none;stroke-opacity:1"
       d="M 169.26493,392.244 238.5177,184.48569"
       id="path4201"
       inkscape:connector-curvature="0" />
    <path
       style="fill:none;fill-rule:evenodd;stroke:#000000;stroke-width:7.34537;stroke-linecap:butt;stroke-linejoin:miter;stroke-miterlimit:4;stroke-dasharray:none;stroke-opacity:1"
       d="M 306.58309,392.01897 237.33032,184.26065"
       id="path4201-9"
       inkscape:connector-curvature="0" />
    <path
       style="fill:none;fill-rule:evenodd;stroke:#000000;stroke-width:2.44846px;stroke-linecap:butt;stroke-linejoin:miter;stroke-opacity:1"
       d="M 169.50177,391.12053 271.81221,291.87066"
       id="path4224"
       inkscape:connector-curvature="0" />
    <path
       style="fill:none;fill-rule:evenodd;stroke:#000000;stroke-width:2.44846px;stroke-linecap:butt;stroke-linejoin:miter;stroke-opacity:1"
       d="M 203.16803,290.99619 256.94658,245.5249"
       id="path4226"
       inkscape:connector-curvature="0" />
    <path
       style="fill:none;fill-rule:evenodd;stroke:#000000;stroke-width:2.44846px;stroke-linecap:butt;stroke-linejoin:miter;stroke-opacity:1"
       d="m 218.47087,244.21321 53.34134,47.22023"
       id="path4228"
       inkscape:connector-curvature="0" />
    <path
       style="fill:none;fill-rule:evenodd;stroke:#000000;stroke-width:2.44846px;stroke-linecap:butt;stroke-linejoin:miter;stroke-opacity:1"
       d="m 202.7308,289.24731 103.18491,101.436"
       id="path4230"
       inkscape:connector-curvature="0" />
    <path
       style="fill:none;fill-rule:evenodd;stroke:#000000;stroke-width:4.89691;stroke-linecap:butt;stroke-linejoin:miter;stroke-miterlimit:4;stroke-dasharray:none;stroke-opacity:1"
       d="M 238.58317,186.49962 V 160.70341 H 210.1636"
       id="path4232"
       inkscape:connector-curvature="0"
       sodipodi:nodetypes="ccc" />
    <path
       style="color:#000000;clip-rule:nonzero;display:inline;overflow:visible;visibility:visible;opacity:1;isolation:auto;mix-blend-mode:normal;color-interpolation:sRGB;color-interpolation-filters:linearRGB;solid-color:#000000;solid-opacity:1;fill:none;fill-opacity:1;fill-rule:evenodd;stroke:#000000;stroke-width:4.89691;stroke-linecap:butt;stroke-linejoin:miter;stroke-miterlimit:4;stroke-dasharray:none;stroke-dashoffset:0;stroke-opacity:1;color-rendering:auto;image-rendering:auto;shape-rendering:auto;text-rendering:auto;enable-background:accumulate"
       id="path4236"
       sodipodi:type="arc"
       sodipodi:cx="197.04695"
       sodipodi:cy="160.7034"
       sodipodi:rx="29.29402"
       sodipodi:ry="29.29402"
       sodipodi:start="4.712389"
       sodipodi:end="1.5707963"
       d="m 197.04695,131.40938 a 29.29402,29.29402 0 0 1 29.29402,29.29402 29.29402,29.29402 0 0 1 -29.29402,29.29402"
       sodipodi:open="true"
       sodipodi:arc-type="arc" />
    <g
       id="g4320"
       transform="matrix(2.4484553,0,0,2.4484553,-555.41589,-486.48819)">
      <path
         sodipodi:open="true"
         d="m 251.06932,256.96861 a 8.0812206,8.0812206 0 0 1 8.08122,8.08123 8.0812206,8.0812206 0 0 1 -8.08122,8.08122"
         sodipodi:end="1.5707963"
         sodipodi:start="4.712389"
         sodipodi:ry="8.0812206"
         sodipodi:rx="8.0812206"
         sodipodi:cy="265.04984"
         sodipodi:cx="251.06932"
         sodipodi:type="arc"
         id="path4143"
         style="color:#000000;clip-rule:nonzero;display:inline;overflow:visible;visibility:visible;opacity:1;isolation:auto;mix-blend-mode:normal;color-interpolation:sRGB;color-interpolation-filters:linearRGB;solid-color:#000000;solid-opacity:1;fill:none;fill-opacity:1;fill-rule:evenodd;stroke:#000000;stroke-width:2;stroke-linecap:butt;stroke-linejoin:miter;stroke-miterlimit:2;stroke-dasharray:none;stroke-dashoffset:0;stroke-opacity:1;color-rendering:auto;image-rendering:auto;shape-rendering:auto;text-rendering:auto;enable-background:accumulate"
         sodipodi:arc-type="arc" />
      <path
         sodipodi:open="true"
         d="m 251.06932,249.89755 a 15.152288,15.152288 0 0 1 15.15229,15.15229 15.152288,15.152288 0 0 1 -15.15229,15.15228"
         sodipodi:end="1.5707963"
         sodipodi:start="4.712389"
         sodipodi:ry="15.152288"
         sodipodi:rx="15.152288"
         sodipodi:cy="265.04984"
         sodipodi:cx="251.06932"
         sodipodi:type="arc"
         id="path4143-3"
         style="color:#000000;clip-rule:nonzero;display:inline;overflow:visible;visibility:visible;opacity:1;isolation:auto;mix-blend-mode:normal;color-interpolation:sRGB;color-interpolation-filters:linearRGB;solid-color:#000000;solid-opacity:1;fill:none;fill-opacity:1;fill-rule:evenodd;stroke:#000000;stroke-width:2;stroke-linecap:butt;stroke-linejoin:miter;stroke-miterlimit:2;stroke-dasharray:none;stroke-dashoffset:0;stroke-opacity:1;color-rendering:auto;image-rendering:auto;shape-rendering:auto;text-rendering:auto;enable-background:accumulate"
         sodipodi:arc-type="arc" />
      <path
         sodipodi:open="true"
         d="m 251.06932,242.82648 a 22.223356,22.223356 0 0 1 22.22336,22.22336 22.223356,22.223356 0 0 1 -22.22336,22.22335"
         sodipodi:end="1.5707963"
         sodipodi:start="4.712389"
         sodipodi:ry="22.223356"
         sodipodi:rx="22.223356"
         sodipodi:cy="265.04984"
         sodipodi:cx="251.06932"
         sodipodi:type="arc"
         id="path4143-6"
         style="color:#000000;clip-rule:nonzero;display:inline;overflow:visible;visibility:visible;opacity:1;isolation:auto;mix-blend-mode:normal;color-interpolation:sRGB;color-interpolation-filters:linearRGB;solid-color:#000000;solid-opacity:1;fill:none;fill-opacity:1;fill-rule:evenodd;stroke:#000000;stroke-width:2;stroke-linecap:butt;stroke-linejoin:miter;stroke-miterlimit:2;stroke-dasharray:none;stroke-dashoffset:0;stroke-opacity:1;color-rendering:auto;image-rendering:auto;shape-rendering:auto;text-rendering:auto;enable-background:accumulate"
         sodipodi:arc-type="arc" />
      <path
         sodipodi:open="true"
         d="m 251.06932,235.25034 a 29.7995,29.7995 0 0 1 29.7995,29.7995 29.7995,29.7995 0 0 1 -29.7995,29.79949"
         sodipodi:end="1.5707963"
         sodipodi:start="4.712389"
         sodipodi:ry="29.7995"
         sodipodi:rx="29.7995"
         sodipodi:cy="265.04984"
         sodipodi:cx="251.06932"
         sodipodi:type="arc"
         id="path4143-5"
         style="color:#000000;clip-rule:nonzero;display:inline;overflow:visible;visibility:visible;opacity:1;isolation:auto;mix-blend-mode:normal;color-interpolation:sRGB;color-interpolation-filters:linearRGB;solid-color:#000000;solid-opacity:1;fill:none;fill-opacity:1;fill-rule:evenodd;stroke:#000000;stroke-width:2;stroke-linecap:butt;stroke-linejoin:miter;stroke-miterlimit:2;stroke-dasharray:none;stroke-dashoffset:0;stroke-opacity:1;color-rendering:auto;image-rendering:auto;shape-rendering:auto;text-rendering:auto;enable-background:accumulate"
         sodipodi:arc-type="arc" />
      <path
         d="m 251.06932,228.17927 a 36.870567,36.870567 0 0 1 36.87057,36.87057 36.870567,36.870567 0 0 1 -36.87057,36.87056"
         sodipodi:open="true"
         sodipodi:end="1.5707963"
         sodipodi:start="4.712389"
         sodipodi:ry="36.870567"
         sodipodi:rx="36.870567"
         sodipodi:cy="265.04984"
         sodipodi:cx="251.06932"
         sodipodi:type="arc"
         id="path4143-35"
         style="color:#000000;clip-rule:nonzero;display:inline;overflow:visible;visibility:visible;opacity:1;isolation:auto;mix-blend-mode:normal;color-interpolation:sRGB;color-interpolation-filters:linearRGB;solid-color:#000000;solid-opacity:1;fill:none;fill-opacity:1;fill-rule:evenodd;stroke:#000000;stroke-width:2;stroke-linecap:butt;stroke-linejoin:miter;stroke-miterlimit:2;stroke-dasharray:none;stroke-dashoffset:0;stroke-opacity:1;color-rendering:auto;image-rendering:auto;shape-rendering:auto;text-rendering:auto;enable-background:accumulate"
         sodipodi:arc-type="arc" />
      <path
         sodipodi:open="true"
         d="m 251.06932,221.1082 a 43.941635,43.941635 0 0 1 43.94164,43.94164 43.941635,43.941635 0 0 1 -43.94164,43.94163"
         sodipodi:end="1.5707963"
         sodipodi:start="4.712389"
         sodipodi:ry="43.941635"
         sodipodi:rx="43.941635"
         sodipodi:cy="265.04984"
         sodipodi:cx="251.06932"
         sodipodi:type="arc"
         id="path4143-62"
         style="color:#000000;clip-rule:nonzero;display:inline;overflow:visible;visibility:visible;opacity:1;isolation:auto;mix-blend-mode:normal;color-interpolation:sRGB;color-interpolation-filters:linearRGB;solid-color:#000000;solid-opacity:1;fill:none;fill-opacity:1;fill-rule:evenodd;stroke:#000000;stroke-width:2;stroke-linecap:butt;stroke-linejoin:miter;stroke-miterlimit:2;stroke-dasharray:none;stroke-dashoffset:0;stroke-opacity:1;color-rendering:auto;image-rendering:auto;shape-rendering:auto;text-rendering:auto;enable-background:accumulate"
         sodipodi:arc-type="arc" />
      <path
         d="m 251.06932,214.46861 a 50.581223,50.581223 0 0 1 50.58122,50.58123 50.581223,50.581223 0 0 1 -50.58122,50.58122"
         sodipodi:open="true"
         sodipodi:end="1.5707963"
         sodipodi:start="4.712389"
         sodipodi:ry="50.581223"
         sodipodi:rx="50.581223"
         sodipodi:cy="265.04984"
         sodipodi:cx="251.06932"
         sodipodi:type="arc"
         id="path4143-1"
         style="color:#000000;clip-rule:nonzero;display:inline;overflow:visible;visibility:visible;opacity:1;isolation:auto;mix-blend-mode:normal;color-interpolation:sRGB;color-interpolation-filters:linearRGB;solid-color:#000000;solid-opacity:1;fill:none;fill-opacity:1;fill-rule:evenodd;stroke:#000000;stroke-width:2;stroke-linecap:butt;stroke-linejoin:miter;stroke-miterlimit:2;stroke-dasharray:none;stroke-dashoffset:0;stroke-opacity:1;color-rendering:auto;image-rendering:auto;shape-rendering:auto;text-rendering:auto;enable-background:accumulate"
         sodipodi:arc-type="arc" />
    </g>
    <path
       style="fill:none;fill-rule:evenodd;stroke:#000000;stroke-width:4.89691;stroke-linecap:butt;stroke-linejoin:miter;stroke-miterlimit:4;stroke-dasharray:none;stroke-opacity:1"
       d="M 326.02801,389.37165 346.14033,188.24853"
       id="path4253"
       inkscape:connector-curvature="0" />
    <path
       style="fill:none;fill-rule:evenodd;stroke:#000000;stroke-width:2.44846px;stroke-linecap:butt;stroke-linejoin:miter;stroke-opacity:1"
       d="m 344.39142,188.68575 c -63.39751,0.87444 -61.21138,45.47131 -61.21138,45.47131 0,0 30.16847,-31.91737 61.64861,-26.67068 z"
       id="path4255"
       inkscape:connector-curvature="0" />
    <path
       style="color:#000000;clip-rule:nonzero;display:inline;overflow:visible;visibility:visible;opacity:1;isolation:auto;mix-blend-mode:normal;color-interpolation:sRGB;color-interpolation-filters:linearRGB;solid-color:#000000;solid-opacity:1;fill:none;fill-opacity:1;fill-rule:evenodd;stroke:#000000;stroke-width:4.89691;stroke-linecap:butt;stroke-linejoin:miter;stroke-miterlimit:4;stroke-dasharray:none;stroke-dashoffset:0;stroke-opacity:1;color-rendering:auto;image-rendering:auto;shape-rendering:auto;text-rendering:auto;enable-background:accumulate"
       d="m 285.22702,227.70896 c 0.44053,-3.32077 2.61895,-9.31615 4.72273,-12.9978 6.63407,-11.60964 19.1729,-19.57481 35.89485,-22.8018 4.8201,-0.93019 16.74819,-2.09906 17.16516,-1.68209 0.13222,0.13222 -0.0974,3.6555 -0.51048,7.82948 l -0.75091,7.58903 -5.06826,0.0421 c -8.44864,0.0703 -16.01454,2.0522 -25.77276,6.75142 -7.6454,3.6818 -15.74067,9.06663 -22.43416,14.92287 -1.60274,1.40223 -3.05452,2.54953 -3.22621,2.54953 -0.17164,0 -0.1807,-0.99123 -0.0196,-2.20275 z"
       id="path4257"
       inkscape:connector-curvature="0" />
    <path
       style="color:#000000;clip-rule:nonzero;display:inline;overflow:visible;visibility:visible;opacity:1;isolation:auto;mix-blend-mode:normal;color-interpolation:sRGB;color-interpolation-filters:linearRGB;solid-color:#000000;solid-opacity:1;fill:none;fill-opacity:1;fill-rule:evenodd;stroke:#000000;stroke-width:4.89691;stroke-linecap:butt;stroke-linejoin:miter;stroke-miterlimit:4;stroke-dasharray:none;stroke-dashoffset:0;stroke-opacity:1;color-rendering:auto;image-rendering:auto;shape-rendering:auto;text-rendering:auto;enable-background:accumulate"
       d="m 289.41971,222.44343 c 0,-1.33176 3.71132,-8.04596 6.12949,-11.08895 6.2988,-7.92639 17.35734,-14.07115 29.94152,-16.63723 3.6242,-0.73902 14.29303,-1.98046 14.60675,-1.69965 0.0982,0.0879 -0.0196,2.24622 -0.261,4.79645 -0.29468,3.11018 -0.6413,4.7647 -1.05279,5.02521 -0.3374,0.21351 -2.1125,0.39141 -3.94468,0.39509 -4.33661,0.01 -9.79625,0.97977 -14.88495,2.64746 -8.11464,2.65937 -20.31586,9.31919 -28.45751,15.53303 -1.14252,0.87199 -2.07683,1.33472 -2.07683,1.02859 z"
       id="path4259"
       inkscape:connector-curvature="0" />
    <path
       style="color:#000000;clip-rule:nonzero;display:inline;overflow:visible;visibility:visible;opacity:1;isolation:auto;mix-blend-mode:normal;color-interpolation:sRGB;color-interpolation-filters:linearRGB;solid-color:#000000;solid-opacity:1;fill:none;fill-opacity:1;fill-rule:evenodd;stroke:#000000;stroke-width:4.89691;stroke-linecap:butt;stroke-linejoin:miter;stroke-miterlimit:4;stroke-dasharray:none;stroke-dashoffset:0;stroke-opacity:1;color-rendering:auto;image-rendering:auto;shape-rendering:auto;text-rendering:auto;enable-background:accumulate"
       d="m 297.53561,213.18788 c 6.02055,-7.23526 14.87791,-12.48379 25.55036,-15.14012 2.87341,-0.71519 12.38593,-2.23953 13.97551,-2.23953 0.14226,0 0.15475,1.03296 0.0279,2.29543 l -0.23065,2.29542 -4.1969,0.29948 c -9.67769,0.69051 -20.89151,4.72005 -32.14292,11.55012 -3.5747,2.16999 -4.16081,2.35453 -2.9831,0.9392 z"
       id="path4261"
       inkscape:connector-curvature="0" />
    <path
       style="fill:none;fill-rule:evenodd;stroke:#000000;stroke-width:2.44846px;stroke-linecap:butt;stroke-linejoin:miter;stroke-opacity:1"
       d="m 332.14915,347.39812 c 0,0 65.50017,-19.15833 58.15081,28.85678 -6.47981,42.33424 -64.70917,10.49337 -64.70917,10.49337 z"
       id="path4263"
       inkscape:connector-curvature="0"
       sodipodi:nodetypes="cscc" />
    <path
       style="color:#000000;clip-rule:nonzero;display:inline;overflow:visible;visibility:visible;opacity:1;isolation:auto;mix-blend-mode:normal;color-interpolation:sRGB;color-interpolation-filters:linearRGB;solid-color:#000000;solid-opacity:1;fill:none;fill-opacity:1;fill-rule:evenodd;stroke:#000000;stroke-width:4.89691;stroke-linecap:butt;stroke-linejoin:miter;stroke-miterlimit:4;stroke-dasharray:none;stroke-dashoffset:0;stroke-opacity:1;color-rendering:auto;image-rendering:auto;shape-rendering:auto;text-rendering:auto;enable-background:accumulate"
       d="m 358.97788,396.47065 c -7.04142,-0.87802 -18.51429,-4.34887 -26.51173,-8.02053 l -3.51794,-1.61512 1.45553,-14.5176 c 0.80055,-7.98469 1.79805,-16.58351 2.21669,-19.10848 l 0.76112,-4.59086 2.89376,-0.72569 c 7.69978,-1.93095 19.33533,-3.19394 25.50502,-2.76847 17.83753,1.2301 26.03198,7.61614 27.56868,21.48465 0.66338,5.98687 -1.39614,15.90767 -4.21923,20.32426 -1.72127,2.69284 -5.39466,6.10427 -7.82801,7.26979 -4.51272,2.16147 -11.87273,3.07244 -18.32389,2.26805 z"
       id="path4265"
       inkscape:connector-curvature="0" />
    <path
       style="color:#000000;clip-rule:nonzero;display:inline;overflow:visible;visibility:visible;opacity:1;isolation:auto;mix-blend-mode:normal;color-interpolation:sRGB;color-interpolation-filters:linearRGB;solid-color:#000000;solid-opacity:1;fill:none;fill-opacity:1;fill-rule:evenodd;stroke:#000000;stroke-width:4.89691;stroke-linecap:butt;stroke-linejoin:miter;stroke-miterlimit:4;stroke-dasharray:none;stroke-dashoffset:0;stroke-opacity:1;color-rendering:auto;image-rendering:auto;shape-rendering:auto;text-rendering:auto;enable-background:accumulate"
       d="m 360.25004,393.8424 c -1.80355,-0.16967 -5.14831,-0.75126 -7.43282,-1.29227 -7.59286,-1.79812 -20.98676,-6.76158 -20.98676,-7.77722 0,-2.29349 3.2872,-31.16725 3.77375,-33.14753 0.18657,-0.75912 0.83767,-1.05587 3.5831,-1.63297 18.91304,-3.97566 34.37717,-2.47353 41.70549,4.05114 3.91092,3.48202 6.37105,10.69441 5.82992,17.09156 -0.36788,4.34919 -1.71945,9.97959 -3.09206,12.88105 -0.69624,1.47175 -2.15381,3.324 -3.90426,4.96143 -3.16313,2.95896 -6.30075,4.27731 -11.16911,4.69296 -1.56307,0.13344 -3.33382,0.29616 -3.93501,0.36156 -0.6012,0.0654 -2.5687,-0.0196 -4.37224,-0.18976 z"
       id="path4267"
       inkscape:connector-curvature="0" />
    <path
       style="color:#000000;clip-rule:nonzero;display:inline;overflow:visible;visibility:visible;opacity:1;isolation:auto;mix-blend-mode:normal;color-interpolation:sRGB;color-interpolation-filters:linearRGB;solid-color:#000000;solid-opacity:1;fill:none;fill-opacity:1;fill-rule:evenodd;stroke:#000000;stroke-width:4.89691;stroke-linecap:butt;stroke-linejoin:miter;stroke-miterlimit:4;stroke-dasharray:none;stroke-dashoffset:0;stroke-opacity:1;color-rendering:auto;image-rendering:auto;shape-rendering:auto;text-rendering:auto;enable-background:accumulate"
       d="m 358.50114,390.95154 c -5.31352,-0.85946 -14.58743,-3.61326 -20.76814,-6.1669 l -3.06057,-1.26451 0.13858,-1.92958 c 0.16919,-2.35475 2.09074,-19.73004 2.75953,-24.95083 l 0.48467,-3.78341 3.99255,-0.70755 c 6.79256,-1.20376 10.33207,-1.53589 16.45343,-1.54392 13.33497,-0.0171 21.33997,3.55706 24.02267,10.72722 1.94897,5.20909 2.00321,10.00529 0.19221,16.99654 -1.04425,4.03116 -1.68202,5.27282 -3.95845,7.70651 -2.46588,2.63623 -5.10311,4.07871 -8.65859,4.73598 -2.45051,0.45301 -9.25803,0.55893 -11.59787,0.18045 z"
       id="path4269"
       inkscape:connector-curvature="0" />
    <path
       style="color:#000000;clip-rule:nonzero;display:inline;overflow:visible;visibility:visible;opacity:1;isolation:auto;mix-blend-mode:normal;color-interpolation:sRGB;color-interpolation-filters:linearRGB;solid-color:#000000;solid-opacity:1;fill:none;fill-opacity:1;fill-rule:evenodd;stroke:#000000;stroke-width:4.89691;stroke-linecap:butt;stroke-linejoin:miter;stroke-miterlimit:4;stroke-dasharray:none;stroke-dashoffset:0;stroke-opacity:1;color-rendering:auto;image-rendering:auto;shape-rendering:auto;text-rendering:auto;enable-background:accumulate"
       d="m 356.04188,387.74761 c -7.92163,-1.79014 -18.52751,-5.48456 -18.52751,-6.45381 0,-1.01351 2.61442,-24.30829 2.83938,-25.29937 0.551,-2.42728 21.91174,-3.54757 29.2966,-1.53648 4.2454,1.15611 6.93549,2.74814 8.8212,5.22045 1.78198,2.33634 2.35169,4.19998 2.63351,8.61476 0.22844,3.57754 -0.16405,6.61955 -1.40463,10.88686 -0.81257,2.79511 -3.772,6.38829 -6.34096,7.69888 -3.59343,1.83323 -11.3317,2.22141 -17.31759,0.86871 z"
       id="path4271"
       inkscape:connector-curvature="0" />
    <path
       style="color:#000000;clip-rule:nonzero;display:inline;overflow:visible;visibility:visible;opacity:1;isolation:auto;mix-blend-mode:normal;color-interpolation:sRGB;color-interpolation-filters:linearRGB;solid-color:#000000;solid-opacity:1;fill:none;fill-opacity:1;fill-rule:evenodd;stroke:#000000;stroke-width:4.89691;stroke-linecap:butt;stroke-linejoin:miter;stroke-miterlimit:4;stroke-dasharray:none;stroke-dashoffset:0;stroke-opacity:1;color-rendering:auto;image-rendering:auto;shape-rendering:auto;text-rendering:auto;enable-background:accumulate"
       d="m 357.84529,385.38769 c -3.69653,-0.71673 -11.26629,-2.91594 -14.86192,-4.31778 l -2.61965,-1.02132 0.13074,-1.72408 c 0.36808,-4.85534 2.33328,-20.54685 2.60692,-20.81532 0.79029,-0.7754 8.57831,-1.31925 16.41876,-1.14652 7.23315,0.1594 8.73875,0.31541 10.99011,1.139 5.18475,1.8967 7.37475,4.76298 7.89695,10.33547 0.341,3.63899 -0.59218,9.32249 -1.9761,12.03516 -1.10525,2.16649 -3.95298,4.6562 -5.98461,5.23223 -2.76881,0.78505 -9.26035,0.9309 -12.60115,0.28316 z"
       id="path4273"
       inkscape:connector-curvature="0" />
    <path
       style="color:#000000;clip-rule:nonzero;display:inline;overflow:visible;visibility:visible;opacity:1;isolation:auto;mix-blend-mode:normal;color-interpolation:sRGB;color-interpolation-filters:linearRGB;solid-color:#000000;solid-opacity:1;fill:none;fill-opacity:1;fill-rule:evenodd;stroke:#000000;stroke-width:4.89691;stroke-linecap:butt;stroke-linejoin:miter;stroke-miterlimit:4;stroke-dasharray:none;stroke-dashoffset:0;stroke-opacity:1;color-rendering:auto;image-rendering:auto;shape-rendering:auto;text-rendering:auto;enable-background:accumulate"
       d="m 355.87779,382.23844 c -1.32261,-0.34225 -4.71656,-1.34268 -7.54212,-2.2232 -4.40695,-1.37329 -5.13564,-1.72986 -5.12514,-2.50785 0.0375,-2.78233 2.15087,-17.45475 2.57519,-17.87909 0.35079,-0.35076 3.63907,-0.50267 10.87207,-0.5022 8.93789,5.6e-4 10.69158,0.11189 12.70455,0.80654 5.39128,1.86044 7.24814,5.73262 6.17258,12.87188 -0.81734,5.42506 -2.43225,8.20284 -5.54259,9.53367 -1.86881,0.79959 -10.88532,0.73588 -14.11454,-0.0996 z"
       id="path4275"
       inkscape:connector-curvature="0" />
    <path
       style="color:#000000;clip-rule:nonzero;display:inline;overflow:visible;visibility:visible;opacity:1;isolation:auto;mix-blend-mode:normal;color-interpolation:sRGB;color-interpolation-filters:linearRGB;solid-color:#000000;solid-opacity:1;fill:none;fill-opacity:1;fill-rule:evenodd;stroke:#000000;stroke-width:4.89691;stroke-linecap:butt;stroke-linejoin:miter;stroke-miterlimit:4;stroke-dasharray:none;stroke-dashoffset:0;stroke-opacity:1;color-rendering:auto;image-rendering:auto;shape-rendering:auto;text-rendering:auto;enable-background:accumulate"
       d="m 358.50114,380.02797 c -1.74151,-0.22134 -11.87562,-3.18 -12.30743,-3.59323 -0.26059,-0.24935 1.0318,-11.22487 1.58936,-13.49757 l 0.24142,-0.98377 9.7199,0.01 c 8.49272,0.007 9.94073,0.11091 11.46881,0.81269 2.32415,1.06723 3.13834,2.06356 3.68696,4.51162 0.3432,1.53144 0.30481,2.91423 -0.15401,5.54178 -0.65249,3.73752 -1.5344,5.66243 -3.03745,6.62949 -0.9443,0.60759 -8.06144,0.96915 -11.20759,0.56937 z"
       id="path4277"
       inkscape:connector-curvature="0" />
    <path
       style="color:#000000;clip-rule:nonzero;display:inline;overflow:visible;visibility:visible;opacity:1;isolation:auto;mix-blend-mode:normal;color-interpolation:sRGB;color-interpolation-filters:linearRGB;solid-color:#000000;solid-opacity:1;fill:none;fill-opacity:1;fill-rule:evenodd;stroke:#000000;stroke-width:4.89691;stroke-linecap:butt;stroke-linejoin:miter;stroke-miterlimit:4;stroke-dasharray:none;stroke-dashoffset:0;stroke-opacity:1;color-rendering:auto;image-rendering:auto;shape-rendering:auto;text-rendering:auto;enable-background:accumulate"
       d="m 358.14596,377.25263 c -2.0306,-0.4279 -9.26375,-2.57862 -9.26375,-2.75454 0,-0.52228 0.94716,-7.7893 1.1364,-8.71898 l 0.24485,-1.20236 7.72598,0.002 c 8.31637,0.002 10.60244,0.36781 11.64813,1.86073 1.11623,1.59365 0.59994,8.28746 -0.77817,10.08896 -0.64189,0.83911 -7.85364,1.3263 -10.71334,0.72374 z"
       id="path4279"
       inkscape:connector-curvature="0" />
    <path
       style="color:#000000;clip-rule:nonzero;display:inline;overflow:visible;visibility:visible;opacity:1;isolation:auto;mix-blend-mode:normal;color-interpolation:sRGB;color-interpolation-filters:linearRGB;solid-color:#000000;solid-opacity:1;fill:none;fill-opacity:1;fill-rule:evenodd;stroke:#000000;stroke-width:4.89691;stroke-linecap:butt;stroke-linejoin:miter;stroke-miterlimit:4;stroke-dasharray:none;stroke-dashoffset:0;stroke-opacity:1;color-rendering:auto;image-rendering:auto;shape-rendering:auto;text-rendering:auto;enable-background:accumulate"
       d="m 359.8128,374.78348 c -0.60117,-0.0923 -2.61786,-0.58486 -4.48153,-1.09446 -3.73566,-1.02145 -3.73958,-1.02752 -3.10787,-4.84934 l 0.27102,-1.63958 6.17324,0.0517 c 3.39527,0.0284 6.76349,0.18168 7.4849,0.34022 1.31046,0.2882 1.31161,0.29121 1.24105,3.2762 -0.0389,1.64323 -0.23554,3.13782 -0.43722,3.32131 -0.44067,0.40098 -5.60479,0.83032 -7.14359,0.59392 z"
       id="path4281"
       inkscape:connector-curvature="0" />
    <path
       style="color:#000000;clip-rule:nonzero;display:inline;overflow:visible;visibility:visible;opacity:1;isolation:auto;mix-blend-mode:normal;color-interpolation:sRGB;color-interpolation-filters:linearRGB;solid-color:#000000;solid-opacity:1;fill:none;fill-opacity:1;fill-rule:evenodd;stroke:#000000;stroke-width:4.89691;stroke-linecap:butt;stroke-linejoin:miter;stroke-miterlimit:4;stroke-dasharray:none;stroke-dashoffset:0;stroke-opacity:1;color-rendering:auto;image-rendering:auto;shape-rendering:auto;text-rendering:auto;enable-background:accumulate"
       d="m 356.64293,371.31005 c -1.14225,-0.35123 -2.0768,-0.82941 -2.0768,-1.0626 0,-0.46183 8.21197,-0.6009 9.36456,-0.15866 0.38036,0.14593 0.69159,0.63784 0.69159,1.09306 0,0.73334 -0.33635,0.8242 -2.95127,0.79722 -1.62318,-0.0171 -3.88583,-0.31784 -5.02808,-0.66907 z"
       id="path4283"
       inkscape:connector-curvature="0" />
    <path
       style="color:#000000;clip-rule:nonzero;display:inline;overflow:visible;visibility:visible;opacity:1;isolation:auto;mix-blend-mode:normal;color-interpolation:sRGB;color-interpolation-filters:linearRGB;solid-color:#000000;solid-opacity:1;fill:none;fill-opacity:1;fill-rule:evenodd;stroke:#000000;stroke-width:9.79382;stroke-linecap:butt;stroke-linejoin:miter;stroke-miterlimit:4;stroke-dasharray:none;stroke-dashoffset:0;stroke-opacity:1;color-rendering:auto;image-rendering:auto;shape-rendering:auto;text-rendering:auto;enable-background:accumulate"
       id="path4285"
       sodipodi:type="arc"
       sodipodi:cx="427.68256"
       sodipodi:cy="294.71268"
       sodipodi:rx="44.37825"
       sodipodi:ry="44.37825"
       sodipodi:start="5.2223049"
       sodipodi:end="4.1980952"
       d="m 449.34375,255.97998 a 44.37825,44.37825 0 0 1 21.2947,49.87809 44.37825,44.37825 0 0 1 -42.85875,33.23275 44.37825,44.37825 0 0 1 -43.00384,-33.0448 44.37825,44.37825 0 0 1 21.07614,-49.97084"
       sodipodi:open="true"
       sodipodi:arc-type="arc" />
    <rect
       style="color:#000000;clip-rule:nonzero;display:inline;overflow:visible;visibility:visible;opacity:1;isolation:auto;mix-blend-mode:normal;color-interpolation:sRGB;color-interpolation-filters:linearRGB;solid-color:#000000;solid-opacity:1;fill:#000000;fill-opacity:1;fill-rule:evenodd;stroke:#000000;stroke-width:4.89691;stroke-linecap:butt;stroke-linejoin:miter;stroke-miterlimit:4;stroke-dasharray:none;stroke-dashoffset:0;stroke-opacity:1;color-rendering:auto;image-rendering:auto;shape-rendering:auto;text-rendering:auto;enable-background:accumulate"
       id="rect4291"
       width="7.8700457"
       height="72.579178"
       x="423.96625"
       y="235.03151" />
    <path
       style="fill:#000000;fill-opacity:1;fill-rule:evenodd;stroke:#000000;stroke-width:2.44846px;stroke-linecap:butt;stroke-linejoin:miter;stroke-opacity:1"
       d="m 636.21671,200.93512 46.34576,-0.87444 -91.81705,143.40955 -60.33694,-52.46691 -70.83031,119.79941 57.71357,-174.01519 68.20696,52.46689 z"
       id="path4329"
       inkscape:connector-curvature="0"
       sodipodi:nodetypes="cccccccc" />
  </g>
</svg>
